<?xml version="1.0" standalone="no"?>
<!DOCTYPE svg PUBLIC "-//W3C//DTD SVG 20010904//EN"
 "http://www.w3.org/TR/2001/REC-SVG-20010904/DTD/svg10.dtd">
<svg version="1.0" xmlns="http://www.w3.org/2000/svg"
 width="351.000000pt" height="347.000000pt" viewBox="0 0 351.000000 347.000000"
 preserveAspectRatio="xMidYMid meet">

<g transform="translate(0.000000,347.000000) scale(0.100000,-0.100000)"
fill="#000000" stroke="none">
<path d="M1570 3263 c-422 -66 -740 -240 -994 -543 -140 -167 -250 -378 -306
-585 -64 -238 -68 -543 -10 -767 97 -376 329 -705 644 -912 262 -172 540 -256
848 -256 418 0 811 167 1099 466 157 164 266 336 340 537 208 564 72 1191
-352 1616 -239 239 -518 381 -859 437 -77 12 -346 17 -410 7z m-385 -1023
c194 -28 289 -139 248 -286 -36 -123 -170 -204 -385 -229 -56 -7 -81 -25 -35
-25 38 0 127 -30 169 -56 51 -32 78 -78 78 -132 0 -52 -11 -75 -59 -125 -119
-126 -427 -199 -582 -139 -34 13 -69 58 -69 88 0 64 37 76 42 12 2 -31 10 -46
31 -62 25 -19 42 -21 145 -21 102 0 128 4 200 28 171 58 262 135 262 220 0 82
-102 145 -266 162 l-63 7 -75 -156 c-49 -102 -81 -156 -91 -156 -8 0 -15 5
-15 10 0 6 32 73 70 150 39 77 70 142 70 145 0 3 -34 5 -75 5 -60 0 -75 3 -75
15 0 8 6 15 13 16 42 1 172 28 174 35 18 49 144 260 157 262 9 2 16 -1 16 -6
0 -5 -29 -61 -65 -125 -36 -64 -65 -120 -65 -125 0 -5 35 -4 78 0 203 23 323
82 372 183 76 157 -57 280 -300 278 -178 -1 -312 -54 -426 -169 -55 -54 -77
-85 -94 -130 -29 -77 -24 -147 13 -203 30 -45 34 -61 13 -61 -7 0 -26 19 -42
43 -23 34 -29 55 -32 114 -4 64 -1 80 26 135 39 84 91 141 178 198 135 88 296
123 459 100z m881 -196 c-3 -9 -35 -62 -70 -118 -76 -121 -164 -283 -175 -324
-14 -47 -1 -56 68 -49 33 4 69 11 78 16 10 5 61 27 113 49 l95 40 43 79 c84
151 195 323 209 323 20 0 16 -10 -23 -76 -224 -365 -248 -425 -174 -432 19 -2
53 2 75 8 64 18 202 80 262 116 35 21 64 31 81 29 30 -4 82 -22 82 -29 0 -2
-9 -23 -20 -47 -25 -56 -25 -79 -1 -79 23 0 107 37 189 84 67 38 92 44 92 24
0 -23 -227 -138 -275 -140 -42 -1 -45 1 -54 43 l-6 32 -31 -26 c-39 -33 -76
-47 -103 -40 -21 5 -37 36 -26 53 9 14 -21 12 -53 -4 -58 -29 -157 -58 -204
-60 -41 -1 -53 3 -69 23 -13 16 -17 31 -13 48 6 23 5 25 -17 18 -13 -4 -36
-14 -50 -21 -128 -65 -266 -88 -295 -49 -10 13 -14 32 -10 53 4 24 2 32 -7 29
-123 -54 -170 -71 -235 -88 -167 -43 -227 12 -142 130 46 62 121 91 149 57 30
-36 -48 -105 -120 -106 -19 0 -28 -6 -32 -22 -9 -32 -1 -38 55 -38 53 0 178
38 288 88 l65 29 82 141 c118 202 152 252 169 252 11 0 14 -5 10 -16z"/>
<path d="M1458 1670 l-33 -29 33 9 c36 10 62 27 62 41 0 18 -31 8 -62 -21z"/>
<path d="M2569 1631 c-41 -41 -50 -71 -21 -71 19 0 122 85 122 101 0 5 -14 9
-31 9 -23 0 -42 -10 -70 -39z"/>
</g>
</svg>
